<svg version="1.1" id="Слой_1" xmlns="http://www.w3.org/2000/svg" x="0" y="0" viewBox="0 0 416 153" xml:space="preserve"><style>.st0{fill:#fff}</style><path class="st0" d="M32.5 66.8c1.9-1.3 4-2.2 6.2-3 2.5-.8 2.8-.2.3-1.1-2.9-1-6.5-.8-9.5-.3-.6.1-1.3-.7-.7-1.1 10-8.2 22.2-11.9 35-10.6-2.8-4-6.5-6.9-11.2-8.8-.5-.2-.8-1-.2-1.3 8.4-4 17.4-4.6 26-1.5-2-2.5-4.2-4.7-6.9-6.7-.6-.4-.4-1.2.4-1.3 6.2-.6 12.4-.1 18.4 2 2.4.8 4.7 1.9 6.9 3.1 2.3 1.3 3.1 3.2 5.1-.1 1.2-2 1-5.2 1-7.5 0-.6.7-.9 1.1-.5 1.6 1.6 3 3.3 4.1 5.3 1.1 2 1.3 4.7 3.3 4.2 1.7-.4 3.7-2.9 5.3-3.8 2.1-1.2 4.4-2.2 6.7-3.1.6-.2.9.5.7.9-.9 2-2.7 6.1-2.2 8.5.4 2.2.2 2.2 2.8 2.2 3.4 0 6.4-.8 9.9-.5.4 0 .8.6.4.9-1.9 1.6-3.9 3.1-5.8 4.6 9-.3 18.4 2.8 27.4 2.2.1-1.1.3-2.2.9-3.2.5-.9 1.3-1.6 2.5-1.9.3-.1.6-.1.9-.1.1-.1.2-.1.3 0 0 0 .1.1.2.1.6.1 1.1.4 1.5.8l.3.3c.4.5.6 1.1.7 1.6.4.9.6 2 .4 3.1-.3 1.7-1.7 3.3-3.5 3.6-2.7 19.8-16.6 36-35.7 41.2v1.2c.3 0 .6.1.5.4-.4 4.2-.4 8.3.8 12.4v.5c3.1-.4 6.4.4 5.9 4.4-.2 2-1.8 3.8-3.7 4.5-2.7.9-5.5-.1-7.8-1.6-2.8 2.3-7.3 1.6-10.3-.7-5.5-4.3-6-11.1-5.4-17.5-.1.1-.1.1-.3.2-8.3 2.5-17.4 3.7-26.3 3.6-.5 3.9-.6 7.8-.5 11.8 1 .2 1.8.7 2.4 1.6.9 1.5.7 3.7-1.1 4.3-.4.1-.7-.5-.3-.7.2-.1.4-.2.5-.4-2.7 2.1-8.3 3.8-10.7.4-1.3-1.8-.6-4.9-.6-7 0-3.6 0-7.2.2-10.8-2.1-.3-4.1-.7-6.1-1.1-1 1.4-1.9 2.9-2.6 4.4-1 2-1.6 4.2-2.3 6.3 1.2.7 2.2 1.6 2.7 2.9.6 1.6.1 3.3-1.2 4.2.1.1.1.4-.1.4-2 .7-4.1.5-5.9-.6-2.7-.8-4.9-2.8-5.8-5.9-1.4-4.9 1.7-11 4.8-15.6-.2-.2-.3-.5-.2-.8-.1-.1-.3-.2-.4-.4-5.3 2.2-9.7 5.5-13.2 10.2-.4.6-1.4.4-1.4-.4 0-4.8 1.5-8.9 4.8-12.3-4.9.1-9.4 1-14 2.9-.5.2-1-.4-.9-.9 1.1-4.3 2.9-8.2 5.6-11.8.6-.8 4-3.8 3.6-4.5-1.2-2.4-10.8-.8-12.6-.4-.6.1-1-.4-.7-.9 2.3-4 5.4-7.8 9.6-10.5zm-3.7 9.8c3.4-.1 6.4.4 9.7 1.4.4.1.7.8.3 1.1-1.7 1.5-12.3 13-9.7 14.8.7.5 6.1-1.6 7.2-1.8 2.4-.4 4.9-.4 7.3-.4.6 0 1 .8.5 1.3-3.2 2.8-5 6.2-5.5 10.3 3.5-4.1 7.7-7.1 12.8-9.1.6-.3 1 .4.9.9.2-.1.4-.2.5-.4l.3.3c.1.1.1.2.2.3.1 0 .2-.1.3-.2l.9-1.2c.3-.4.8-.1.7.3 9.4-5.2 18.6-10.8 27.5-17 9.7-6.8 18.7-14.4 28.1-21.6-.2-.1-.4-.2-.6-.2.1 0 .1-.1.2-.1-2.2-3.4-2.9-9.4 2-10.4 3.8-.8 6.1 2 7.3 5.2 2.9-1.4 6-2.1 9.1-2.3 1.8-1.5 4.8-4 4.5-4.4-1.2-1.8-8.9.7-10.8 1.2-.2.1-.6-.1-.6-.4-.3-1.9-.5-3.7-.3-5.6 0-.4 1.3-5.3 1.3-5.5-1.4-1.6-10.9 6.6-11.9 7.4-.3.3-.9.2-1-.3-.6-2.4-1.5-4.7-2.7-6.8-3.6-5.9-1.6-2.6-2.5-.8-1.2 2.2-1.3 5.3-2.5 7.7-.1.3-.6.4-.9.2-8-6-17.4-8.8-27.3-8.2 2.8 2.3 5.2 4.9 7.3 7.9.3.5-.2 1.3-.8 1-8.4-3.5-17.3-3.6-25.7-.1 4.7 2.2 8.4 5.5 11.3 10 .3.4-.1 1.2-.6 1.1-12-1.6-23.9 1.4-33.7 8.5 4-.3 7.7.4 11.6 2.1.5.2.4 1.2-.2 1.3-5.8 1.1-15 4.9-17.3 11.1-.4 1.1-1.2 1-.3 1.5.2.4 2.5-.1 3.1-.1zm29.6 40.8h.2c.7-1.1.4-2.7-.6-3.7-1.4-1.4-3.3-1.5-5.1-2-.4-.1-.5-.4-.5-.7 0-.4.2-.8.7-.7 1.1.1 2.3.3 3.5.8.6-4.5 3-9.1 5.8-12.5.6-.7 1.7.2 1.2.9l-.1.1c14.2 1.7 27.3 1.6 41.5-1.3.3-.1.5.1.6.3.1-1.2.3-2.4.4-3.5.1-.5.9-.4.9.1-.4 5.1-.8 10.5 1.4 15.2.7 1.6 2.1 3.3 3.8 4.7 2.7 2.1 6 3.3 8.4 1.3 0-.3.2-.6.5-.6.4-.4.7-.9 1-1.5-.8-2.7-6.2-1.3-8-.9h-.2c-.6 0-.8-.9-.1-1.2 1.1-.5 2.6-.8 4-.9-2-5.7-2.2-12.3.1-17.9.2-.5 1-.3.9.2-.1.5-.2 1.1-.2 1.6 18.6-2.7 34.3-15 39.7-33.2.5-1.7 1.7-5.3 1.7-7.9-1.1-.2-1.8-1.1-2.3-2.3-.1-.1-.2-.3-.3-.5-1.6.1-3.9.5-4.7.5-1.5 0-3-.2-4.5-.4-9.6-1.2-18.7-3.7-28.1-.5.4 1.2.6 2.4.7 3.5.1.8-1.1.9-1.3.2-.9-3.1-1.4-7.4-5.3-8.1-2.2-.4-3.7 1.1-3.8 3.3-.2 2.1.7 4 1.9 5.6.4.5 0 1.1-.4 1.2-.1-.2-.3-.3-.4-.5 0 .1 0 .1-.1.2C95 72.7 74.1 85.8 53.9 96.7c-1.6 3-3.1 6-4.3 9.1-.7 1.9-.9 3.8-.6 5.5.6 4.2 3.7 7.2 9.4 6.1zm20.9.8c.3-.3.7-.1 1 .1 0-.7-.2-1.5-.7-2-1.3-1.3-3.8-.7-5.4-.3-.8.2-1.1-1-.3-1.2 1.1-.2 2.4-.5 3.6-.4-.3-3.9-.3-7.8.1-11.7-2.6-.1-5.3-.3-7.9-.6.1 3.3.1 6.7.1 10 0 1.4-.4 3.5 0 4.8 1.6 5.1 6.8 3.5 9.5 1.3zm39.7-6.8c.7.1 1.4.2 2 .5.5.2 1 .5 1.3.9.4.4.6.9.6 1.4.1.1.2.3.1.5-.2.6-.6 1.2-.9 1.7 3.1 1.6 8.2 2.8 9.1-1.8 1-4.9-5.7-3.2-8.1-2.5h-.2c-.5 0-.7-.7-.3-1 .8-.4 1.8-.7 2.8-1-.1-.1-.1-.2-.2-.3-1.1-4.1-1.4-8.4-.4-12.5-.1 0-.2-.1-.2-.3 0-.5 0-1-.1-1.5-2 .5-4.1.9-6.3 1.2-.2 0-.3 0-.4-.1-.6 4.9-.4 9.5.9 14.5.4.1.3.2.3.3z"/><path d="M25.7 75.4c2.3-6.2 11.5-10 17.3-11.1.6-.1.7-1 .2-1.3-3.8-1.7-7.6-2.4-11.6-2.1 9.7-7.2 21.6-10.1 33.7-8.5.6.1.9-.7.6-1.1-2.9-4.5-6.6-7.8-11.3-10 8.3-3.5 17.3-3.5 25.7.1.6.2 1.1-.6.8-1-2.1-3-4.5-5.6-7.3-7.9 9.9-.6 19.3 2.2 27.3 8.2.3.2.8.1.9-.2 1.2-2.4 1.3-5.5 2.5-7.7.9-1.8-1.1-5.1 2.5.8 1.3 2.1 2.1 4.4 2.7 6.8.1.5.7.6 1 .3.9-.9 10.5-9 11.9-7.4 0 .2-1.3 5-1.3 5.5-.2 1.9 0 3.7.3 5.6 0 .3.4.4.6.4 1.9-.6 9.6-3 10.8-1.2.3.4-2.7 2.9-4.5 4.4-.7.1-1.5.1-2.2.2.2-.2.3-.5.5-.7.3-.4-.1-1-.6-1-2.7.1-5.3.8-7.7 1.9-.2-.3-.3-.5-.5-.7.3-2.4.1-4.7-.2-7.1-.1-.5-.5-.8-1-.6-2.5 1.3-4.2 3.2-5.4 5.5-.5.2-.9.4-1.2.7-.9-1.8-2-3.4-3.1-5.1-.3-.5-1-.4-1.2.2-.9 2.3-1.5 4.8-2.1 7.2-6.7-6.6-14.7-10.6-23.5-14-.7-.3-1.1.7-.7 1.1 3.6 3.9 6.7 8 8.4 12.9-9-3.6-17.8-7.3-27.7-7.4-.7 0-.9.9-.3 1.3 6.5 3.6 13.3 9.2 15.2 16.7-11.1-1.9-22.4-6.3-33.6-3-.6-.2-.4.9.4.9 6.8.2 12.6 4.2 17.7 8.3-9.4 1.4-18.6 2.9-27.2 7.3-.5.4-.3 1.4.4 1.4 5.4 0 11.7-.6 16.8 1.7-5 3-9.5 6.6-13 11.4-.3.4.1 1 .6 1 4.3.3 8.4-.2 12.7-.6-2.6 3.3-4.2 6.9-5.7 10.7-2 1.5-3.8 3.2-5.5 5.1.4-4.1 2.3-7.5 5.5-10.3.5-.4.1-1.2-.5-1.3-2.5-.1-4.9 0-7.3.4-1.1.2-6.5 2.2-7.2 1.8-2.8-1.9 7.7-13.3 9.4-14.8.4-.3.2-1-.3-1.1-3.2-1-6.3-1.6-9.7-1.4-.6 0-2.9.6-3.4.3-.8-.5 0-.5.4-1.5z" fill="#edb300"/><path class="st0" d="M116.5 50.6c.8 1 1.2 2.2 1.2 3.5 0 .3-.3.3-.4.2-1.1.4-2.2.8-3.3 1.1-.1 0-.2 0-.3-.1-.2.1-.4.1-.6-.2-.8-1.3-1.9-5.9.6-6.2 1 0 2.2.9 2.8 1.7zm-2.7 4c1.1-.4 2.2-.5 3.3-.8-.2-1.6-1.1-3.1-2.6-3.8-1.3-.6-1.6.8-1.6 1.8.1 1 .4 1.9.9 2.8zm23.2 13c-.4.2-.2.8.2.7 3.4-1.4 6.7-3.1 9.5-5.3.2-.1-.1-.4-.2-.3-3.2 1.8-6.2 3.6-9.5 4.9zm3.3-13.9c-2.4.5-4.2 3.7-2.2 5.8.5.6 1.3-.2 1-.8-.8-1.6 0-3.5 2-3.6 1.7-.1 3.2 1.1 3.5 2.7.1.4.7.4.8 0 .7-2.9-2.7-4.7-5.1-4.1zm-.5 16.4c-.3.1-.2.6.1.5 2.7-1 5.1-2.5 7.2-4.5.2-.2-.1-.4-.3-.3-2.1 1.9-4.4 3.2-7 4.3zm55.5 8h-4.5v12.7h-10.1V57.7h10.1V69h4.5V57.7h10.1v33.1h-10.1V78.1zm14.9-20.4h17.7v8.9h-8v3.3h7.2v8.3h-7.2v3.5h8.6v9.1h-18.3V57.7zm21.8 33v-33h10.6c2.7 0 5 .4 6.9 1.2 1.9.8 3.4 2 4.6 3.4 1.2 1.5 2 3.2 2.5 5.3.5 2 .8 4.3.8 6.7 0 2.4-.3 4.6-.8 6.6s-1.4 3.7-2.5 5.2c-1.2 1.4-2.7 2.6-4.6 3.4-1.9.8-4.2 1.2-6.9 1.2H232zm15.3-16.4c0-2.5-.4-4.4-1.2-5.7-.8-1.4-1.9-2-3.2-2h-.6v15.3h.6c1.4 0 2.4-.7 3.2-2 .8-1.4 1.2-3.3 1.2-5.6zm26.6 17.2c-2.2 0-4.2-.4-6-1.3-1.8-.8-3.2-2-4.5-3.6-1.2-1.5-2.1-3.3-2.8-5.5-.7-2.1-1-4.5-1-7.1 0-2.6.3-5 1-7.2s1.6-4 2.8-5.5c1.2-1.5 2.7-2.7 4.3-3.5 1.7-.8 3.5-1.2 5.5-1.2 1.3 0 2.5.1 3.5.4 1.1.2 2 .5 2.8.9.8.4 1.6.8 2.2 1.3.6.5 1.1 1 1.6 1.5l-5.3 7.6c-.5-.6-1-1-1.6-1.3-.6-.3-1.4-.5-2.3-.5-.8 0-1.6.2-2.1.6-.6.4-1.1 1-1.5 1.7-.4.7-.7 1.5-.9 2.4-.2.9-.3 1.9-.3 2.9s.1 1.9.2 2.8c.2.9.4 1.8.7 2.5.3.7.8 1.3 1.4 1.8.6.5 1.2.7 2.1.7.6 0 1-.1 1.4-.3v-2.8h-2.9V70h11.4v18.9c-1.1.8-2.5 1.5-4.2 1.9-1.4.5-3.3.7-5.5.7zM288 57.7h17.7v8.9h-8v3.3h7.2v8.3h-7.2v3.5h8.6v9.1H288V57.7zm36.4 20.4h-4.5v12.7h-10.1V57.7h10.1V69h4.5V57.7h10.1v33.1h-10.1V78.1zm13.6-4c0-2.6.3-5 1-7.2.6-2.1 1.6-4 2.8-5.5 1.2-1.5 2.7-2.7 4.4-3.5 1.7-.8 3.6-1.2 5.7-1.2s4 .4 5.7 1.2c1.7.8 3.2 2 4.4 3.5 1.2 1.5 2.1 3.3 2.8 5.5.6 2.1 1 4.5 1 7.2 0 2.6-.3 5.1-1 7.2-.6 2.2-1.6 4-2.8 5.5-1.2 1.5-2.7 2.7-4.4 3.5-1.7.8-3.6 1.3-5.7 1.3s-4-.4-5.7-1.3c-1.7-.8-3.2-2-4.4-3.5-1.2-1.5-2.1-3.4-2.8-5.5-.7-2.2-1-4.6-1-7.2zm10.3 0c0 2.1.3 3.9.9 5.3.6 1.4 1.5 2.1 2.7 2.1 1.2 0 2.1-.7 2.7-2.1.6-1.4.9-3.2.9-5.3s-.3-3.9-.9-5.3c-.6-1.4-1.5-2.1-2.7-2.1-1.2 0-2.1.7-2.7 2.1-.6 1.4-.9 3.1-.9 5.3zm33.8 17.4c-2.2 0-4.2-.4-6-1.3-1.8-.8-3.2-2-4.5-3.6-1.2-1.5-2.1-3.3-2.8-5.5-.7-2.1-1-4.5-1-7.1 0-2.6.3-5 1-7.2s1.6-4 2.8-5.5c1.2-1.5 2.7-2.7 4.3-3.5 1.7-.8 3.5-1.2 5.5-1.2 1.3 0 2.5.1 3.5.4 1.1.2 2 .5 2.8.9.8.4 1.6.8 2.2 1.3.6.5 1.1 1 1.6 1.5l-5.3 7.6c-.5-.6-1-1-1.6-1.3-.6-.3-1.4-.5-2.3-.5-.8 0-1.6.2-2.1.6-.6.4-1.1 1-1.5 1.7-.4.7-.7 1.5-.9 2.4-.2.9-.3 1.9-.3 2.9s.1 1.9.2 2.8c.2.9.4 1.8.7 2.5.3.7.8 1.3 1.4 1.8.6.5 1.2.7 2.1.7.6 0 1-.1 1.4-.3v-2.8h-2.9V70H392v18.9c-1.1.8-2.5 1.5-4.2 1.9-1.6.5-3.5.7-5.7.7zm-199 28.1V105h1.9v14.6h-1.9zm15.7 0l-4.7-11.4h-.1v11.4h-1.7V105h2.2l4.6 11.4h.1V105h1.7v14.6h-2.1zm24.2-.1c-.6.4-1.3.5-2.1.5s-1.5-.2-2.2-.6c-.6-.4-1.2-.9-1.6-1.6-.4-.7-.8-1.5-1-2.4-.2-.9-.4-1.9-.4-3s.1-2.1.4-3.1c.2-.9.6-1.7 1-2.4s1-1.2 1.6-1.6c.6-.4 1.4-.6 2.2-.6.7 0 1.4.1 2 .4.6.3 1.1.7 1.5 1.3l-1.2 1.3c-.3-.4-.7-.8-1.1-1-.4-.2-.8-.3-1.3-.3-.6 0-1.1.2-1.5.5-.4.3-.8.7-1 1.3-.3.5-.5 1.2-.6 1.9-.1.7-.2 1.5-.2 2.3 0 .8.1 1.6.2 2.3.1.7.3 1.3.6 1.9.3.5.6 1 1 1.3.4.3.9.5 1.5.5.5 0 1-.1 1.4-.4.4-.3.7-.6.9-1l1.1 1.2c-.1.4-.6.9-1.2 1.3zm14.5.1v-6.8h-5.1v6.8h-1.9V105h1.9v6.2h5.1V105h1.9v14.6h-1.9zm9.3 0V105h1.9v14.6h-1.9zm15.6 0l-4.7-11.4h-.1v11.4H256V105h2.2l4.6 11.4h.1V105h1.7v14.6h-2.2zm15.9 0l-.8-3.4h-4.2l-.8 3.4h-1.9l3.7-14.6h2.5l3.6 14.6h-2.1zm-2.9-12.9l-1.9 8h3.7l-1.8-8z"/></svg>