<?xml version="1.0" encoding="utf-8"?>
<!-- Generator: Adobe Illustrator 23.0.4, SVG Export Plug-In . SVG Version: 6.00 Build 0)  -->
<svg version="1.1" id="Слой_1" xmlns="http://www.w3.org/2000/svg" xmlns:xlink="http://www.w3.org/1999/xlink" x="0px" y="0px"
	 viewBox="0 0 416 153" style="enable-background:new 0 0 416 153;" xml:space="preserve">
<style type="text/css">
	.st0{fill:#FFFFFF;}
	.st1{fill:#EDB300;}
</style>
<g>
	<path class="st0" d="M32.5,66.8c1.9-1.3,4-2.2,6.2-3c2.5-0.8,2.8-0.2,0.3-1.1c-2.9-1-6.5-0.8-9.5-0.3c-0.6,0.1-1.3-0.7-0.7-1.1
		c10-8.2,22.2-11.9,35-10.6c-2.8-4-6.5-6.9-11.2-8.8c-0.5-0.2-0.8-1-0.2-1.3c8.4-4,17.4-4.6,26-1.5c-2-2.5-4.2-4.7-6.9-6.7
		c-0.6-0.4-0.4-1.2,0.4-1.3c6.2-0.6,12.4-0.1,18.4,2c2.4,0.8,4.7,1.9,6.9,3.1c2.3,1.3,3.1,3.2,5.1-0.1c1.2-2,1-5.2,1-7.5
		c0-0.6,0.7-0.9,1.1-0.5c1.6,1.6,3,3.3,4.1,5.3c1.1,2,1.3,4.7,3.3,4.2c1.7-0.4,3.7-2.9,5.3-3.8c2.1-1.2,4.4-2.2,6.7-3.1
		c0.6-0.2,0.9,0.5,0.7,0.9c-0.9,2-2.7,6.1-2.2,8.5c0.4,2.2,0.2,2.2,2.8,2.2c3.4,0,6.4-0.8,9.9-0.5c0.4,0,0.8,0.6,0.4,0.9
		c-1.9,1.6-3.9,3.1-5.8,4.6c9-0.3,18.4,2.8,27.4,2.2c0.1-1.1,0.3-2.2,0.9-3.2c0.5-0.9,1.3-1.6,2.5-1.9c0.3-0.1,0.6-0.1,0.9-0.1
		c0.1-0.1,0.2-0.1,0.3,0c0,0,0.1,0.1,0.2,0.1c0.6,0.1,1.1,0.4,1.5,0.8c0.1,0.1,0.2,0.2,0.3,0.3c0.4,0.5,0.6,1.1,0.7,1.6
		c0.4,0.9,0.6,2,0.4,3.1c-0.3,1.7-1.7,3.3-3.5,3.6c-2.7,19.8-16.6,36-35.7,41.2c0,0,0,0.1,0,0.1c0,0.4,0,0.7,0,1.1
		c0.3,0,0.6,0.1,0.5,0.4c-0.4,4.2-0.4,8.3,0.8,12.4c0,0.2,0,0.3,0,0.5c3.1-0.4,6.4,0.4,5.9,4.4c-0.2,2-1.8,3.8-3.7,4.5
		c-2.7,0.9-5.5-0.1-7.8-1.6c-2.8,2.3-7.3,1.6-10.3-0.7c-5.5-4.3-6-11.1-5.4-17.5c-0.1,0.1-0.1,0.1-0.3,0.2
		c-8.3,2.5-17.4,3.7-26.3,3.6c-0.5,3.9-0.6,7.8-0.5,11.8c1,0.2,1.8,0.7,2.4,1.6c0.9,1.5,0.7,3.7-1.1,4.3c-0.4,0.1-0.7-0.5-0.3-0.7
		c0.2-0.1,0.4-0.2,0.5-0.4c-2.7,2.1-8.3,3.8-10.7,0.4c-1.3-1.8-0.6-4.9-0.6-7c0-3.6,0-7.2,0.2-10.8c-2.1-0.3-4.1-0.7-6.1-1.1
		c0,0,0,0,0,0c-1,1.4-1.9,2.9-2.6,4.4c-1,2-1.6,4.2-2.3,6.3c1.2,0.7,2.2,1.6,2.7,2.9c0.6,1.6,0.1,3.3-1.2,4.2
		c0.1,0.1,0.1,0.4-0.1,0.4c-2,0.7-4.1,0.5-5.9-0.6c-2.7-0.8-4.9-2.8-5.8-5.9c-1.4-4.9,1.7-11,4.8-15.6c-0.2-0.2-0.3-0.5-0.2-0.8
		c0,0,0,0,0,0c-0.1-0.1-0.3-0.2-0.4-0.4c-5.3,2.2-9.7,5.5-13.2,10.2c-0.4,0.6-1.4,0.4-1.4-0.4c0-4.8,1.5-8.9,4.8-12.3
		c-4.9,0.1-9.4,1-14,2.9c-0.5,0.2-1-0.4-0.9-0.9c1.1-4.3,2.9-8.2,5.6-11.8c0.6-0.8,4-3.8,3.6-4.5c-1.2-2.4-10.8-0.8-12.6-0.4
		c-0.6,0.1-1-0.4-0.7-0.9C25.2,73.3,28.3,69.5,32.5,66.8z M28.8,76.6c3.4-0.1,6.4,0.4,9.7,1.4c0.4,0.1,0.7,0.8,0.3,1.1
		c-1.7,1.5-12.3,13-9.7,14.8c0.7,0.5,6.1-1.6,7.2-1.8c2.4-0.4,4.9-0.4,7.3-0.4c0.6,0,1,0.8,0.5,1.3c-3.2,2.8-5,6.2-5.5,10.3
		c3.5-4.1,7.7-7.1,12.8-9.1c0.6-0.3,1,0.4,0.9,0.9c0.2-0.1,0.4-0.2,0.5-0.4c0.1,0.1,0.2,0.2,0.3,0.3c0.1,0.1,0.1,0.2,0.2,0.3
		c0.1,0,0.2-0.1,0.3-0.2c0.3-0.4,0.6-0.8,0.9-1.2c0.3-0.4,0.8-0.1,0.7,0.3c9.4-5.2,18.6-10.8,27.5-17c9.7-6.8,18.7-14.4,28.1-21.6
		c-0.2-0.1-0.4-0.2-0.6-0.2c0.1,0,0.1-0.1,0.2-0.1c-2.2-3.4-2.9-9.4,2-10.4c3.8-0.8,6.1,2,7.3,5.2c2.9-1.4,6-2.1,9.1-2.3
		c1.8-1.5,4.8-4,4.5-4.4c-1.2-1.8-8.9,0.7-10.8,1.2c-0.2,0.1-0.6-0.1-0.6-0.4c-0.3-1.9-0.5-3.7-0.3-5.6c0-0.4,1.3-5.3,1.3-5.5
		c-1.4-1.6-10.9,6.6-11.9,7.4c-0.3,0.3-0.9,0.2-1-0.3c-0.6-2.4-1.5-4.7-2.7-6.8c-3.6-5.9-1.6-2.6-2.5-0.8c-1.2,2.2-1.3,5.3-2.5,7.7
		c-0.1,0.3-0.6,0.4-0.9,0.2c-8-6-17.4-8.8-27.3-8.2c2.8,2.3,5.2,4.9,7.3,7.9c0.3,0.5-0.2,1.3-0.8,1c-8.4-3.5-17.3-3.6-25.7-0.1
		c4.7,2.2,8.4,5.5,11.3,10c0.3,0.4-0.1,1.2-0.6,1.1c-12-1.6-23.9,1.4-33.7,8.5c4-0.3,7.7,0.4,11.6,2.1c0.5,0.2,0.4,1.2-0.2,1.3
		c-5.8,1.1-15,4.9-17.3,11.1c-0.4,1.1-1.2,1-0.3,1.5C25.9,77.1,28.2,76.6,28.8,76.6z M58.4,117.4c0.1,0,0.2,0,0.2,0
		c0.7-1.1,0.4-2.7-0.6-3.7c-1.4-1.4-3.3-1.5-5.1-2c-0.4-0.1-0.5-0.4-0.5-0.7c0-0.4,0.2-0.8,0.7-0.7c1.1,0.1,2.3,0.3,3.5,0.8
		c0.6-4.5,3-9.1,5.8-12.5c0.6-0.7,1.7,0.2,1.2,0.9c0,0,0,0-0.1,0.1c14.2,1.7,27.3,1.6,41.5-1.3c0.3-0.1,0.5,0.1,0.6,0.3
		c0.1-1.2,0.3-2.4,0.4-3.5c0.1-0.5,0.9-0.4,0.9,0.1c-0.4,5.1-0.8,10.5,1.4,15.2c0.7,1.6,2.1,3.3,3.8,4.7c2.7,2.1,6,3.3,8.4,1.3
		c0-0.3,0.2-0.6,0.5-0.6c0.4-0.4,0.7-0.9,1-1.5c-0.8-2.7-6.2-1.3-8-0.9c-0.1,0-0.1,0-0.2,0c-0.6,0-0.8-0.9-0.1-1.2
		c1.1-0.5,2.6-0.8,4-0.9c-2-5.7-2.2-12.3,0.1-17.9c0.2-0.5,1-0.3,0.9,0.2c-0.1,0.5-0.2,1.1-0.2,1.6c0,0,0,0,0,0
		c18.6-2.7,34.3-15,39.7-33.2c0.5-1.7,1.7-5.3,1.7-7.9c-1.1-0.2-1.8-1.1-2.3-2.3c-0.1-0.1-0.2-0.3-0.3-0.5c-1.6,0.1-3.9,0.5-4.7,0.5
		c-1.5,0-3-0.2-4.5-0.4c-9.6-1.2-18.7-3.7-28.1-0.5c0.4,1.2,0.6,2.4,0.7,3.5c0.1,0.8-1.1,0.9-1.3,0.2c-0.9-3.1-1.4-7.4-5.3-8.1
		c-2.2-0.4-3.7,1.1-3.8,3.3c-0.2,2.1,0.7,4,1.9,5.6c0.4,0.5,0,1.1-0.4,1.2c-0.1-0.2-0.3-0.3-0.4-0.5c0,0.1,0,0.1-0.1,0.2
		C95,72.7,74.1,85.8,53.9,96.7c-1.6,3-3.1,6-4.3,9.1c-0.7,1.9-0.9,3.8-0.6,5.5C49.6,115.5,52.7,118.5,58.4,117.4z M79.3,118.2
		c0.3-0.3,0.7-0.1,1,0.1c0-0.7-0.2-1.5-0.7-2c-1.3-1.3-3.8-0.7-5.4-0.3c-0.8,0.2-1.1-1-0.3-1.2c1.1-0.2,2.4-0.5,3.6-0.4
		c-0.3-3.9-0.3-7.8,0.1-11.7c-2.6-0.1-5.3-0.3-7.9-0.6c0.1,3.3,0.1,6.7,0.1,10c0,1.4-0.4,3.5,0,4.8C71.4,122,76.6,120.4,79.3,118.2z
		 M119,111.4c0.7,0.1,1.4,0.2,2,0.5c0.5,0.2,1,0.5,1.3,0.9c0.4,0.4,0.6,0.9,0.6,1.4c0.1,0.1,0.2,0.3,0.1,0.5
		c-0.2,0.6-0.6,1.2-0.9,1.7c3.1,1.6,8.2,2.8,9.1-1.8c1-4.9-5.7-3.2-8.1-2.5c0,0-0.1,0-0.2,0c-0.5,0-0.7-0.7-0.3-1
		c0.8-0.4,1.8-0.7,2.8-1c-0.1-0.1-0.1-0.2-0.2-0.3c-1.1-4.1-1.4-8.4-0.4-12.5c-0.1,0-0.2-0.1-0.2-0.3c0-0.5,0-1-0.1-1.5
		c-2,0.5-4.1,0.9-6.3,1.2c-0.2,0-0.3,0-0.4-0.1c-0.6,4.9-0.4,9.5,0.9,14.5C119.1,111.2,119,111.3,119,111.4z"/>
	<path class="st1" d="M25.7,75.4c2.3-6.2,11.5-10,17.3-11.1c0.6-0.1,0.7-1,0.2-1.3c-3.8-1.7-7.6-2.4-11.6-2.1
		c9.7-7.2,21.6-10.1,33.7-8.5c0.6,0.1,0.9-0.7,0.6-1.1c-2.9-4.5-6.6-7.8-11.3-10c8.3-3.5,17.3-3.5,25.7,0.1c0.6,0.2,1.1-0.6,0.8-1
		c-2.1-3-4.5-5.6-7.3-7.9c9.9-0.6,19.3,2.2,27.3,8.2c0.3,0.2,0.8,0.1,0.9-0.2c1.2-2.4,1.3-5.5,2.5-7.7c0.9-1.8-1.1-5.1,2.5,0.8
		c1.3,2.1,2.1,4.4,2.7,6.8c0.1,0.5,0.7,0.6,1,0.3c0.9-0.9,10.5-9,11.9-7.4c0,0.2-1.3,5-1.3,5.5c-0.2,1.9,0,3.7,0.3,5.6
		c0,0.3,0.4,0.4,0.6,0.4c1.9-0.6,9.6-3,10.8-1.2c0.3,0.4-2.7,2.9-4.5,4.4c-0.7,0.1-1.5,0.1-2.2,0.2c0.2-0.2,0.3-0.5,0.5-0.7
		c0.3-0.4-0.1-1-0.6-1c-2.7,0.1-5.3,0.8-7.7,1.9c-0.2-0.3-0.3-0.5-0.5-0.7c0.3-2.4,0.1-4.7-0.2-7.1c-0.1-0.5-0.5-0.8-1-0.6
		c-2.5,1.3-4.2,3.2-5.4,5.5c-0.5,0.2-0.9,0.4-1.2,0.7c-0.9-1.8-2-3.4-3.1-5.1c-0.3-0.5-1-0.4-1.2,0.2c-0.9,2.3-1.5,4.8-2.1,7.2
		c-6.7-6.6-14.7-10.6-23.5-14c-0.7-0.3-1.1,0.7-0.7,1.1c3.6,3.9,6.7,8,8.4,12.9c-9-3.6-17.8-7.3-27.7-7.4c-0.7,0-0.9,0.9-0.3,1.3
		c6.5,3.6,13.3,9.2,15.2,16.7c-11.1-1.9-22.4-6.3-33.6-3C41,55.9,41.2,57,42,57c6.8,0.2,12.6,4.2,17.7,8.3
		c-9.4,1.4-18.6,2.9-27.2,7.3C32,73,32.2,74,32.9,74c5.4,0,11.7-0.6,16.8,1.7c-5,3-9.5,6.6-13,11.4c-0.3,0.4,0.1,1,0.6,1
		c4.3,0.3,8.4-0.2,12.7-0.6c-2.6,3.3-4.2,6.9-5.7,10.7c-2,1.5-3.8,3.2-5.5,5.1c0.4-4.1,2.3-7.5,5.5-10.3c0.5-0.4,0.1-1.2-0.5-1.3
		c-2.5-0.1-4.9,0-7.3,0.4c-1.1,0.2-6.5,2.2-7.2,1.8C26.5,92,37,80.6,38.7,79.1c0.4-0.3,0.2-1-0.3-1.1c-3.2-1-6.3-1.6-9.7-1.4
		c-0.6,0-2.9,0.6-3.4,0.3C24.5,76.4,25.3,76.4,25.7,75.4z"/>
	<path class="st0" d="M116.5,50.6c0.8,1,1.2,2.2,1.2,3.5c0,0.3-0.3,0.3-0.4,0.2c-1.1,0.4-2.2,0.8-3.3,1.1c-0.1,0-0.2,0-0.3-0.1
		c-0.2,0.1-0.4,0.1-0.6-0.2c-0.8-1.3-1.9-5.9,0.6-6.2C114.7,48.9,115.9,49.8,116.5,50.6z M113.8,54.6c1.1-0.4,2.2-0.5,3.3-0.8
		c-0.2-1.6-1.1-3.1-2.6-3.8c-1.3-0.6-1.6,0.8-1.6,1.8C113,52.8,113.3,53.7,113.8,54.6z"/>
	<path class="st0" d="M137,67.6c-0.4,0.2-0.2,0.8,0.2,0.7c3.4-1.4,6.7-3.1,9.5-5.3c0.2-0.1-0.1-0.4-0.2-0.3
		C143.3,64.5,140.3,66.3,137,67.6z"/>
	<path class="st0" d="M140.3,53.7c-2.4,0.5-4.2,3.7-2.2,5.8c0.5,0.6,1.3-0.2,1-0.8c-0.8-1.6,0-3.5,2-3.6c1.7-0.1,3.2,1.1,3.5,2.7
		c0.1,0.4,0.7,0.4,0.8,0C146.1,54.9,142.7,53.1,140.3,53.7z"/>
	<path class="st0" d="M139.8,70.1c-0.3,0.1-0.2,0.6,0.1,0.5c2.7-1,5.1-2.5,7.2-4.5c0.2-0.2-0.1-0.4-0.3-0.3
		C144.7,67.7,142.4,69,139.8,70.1z"/>
</g>
<g>
	<path class="st0" d="M195.3,78.1h-4.5v12.7h-10.1V57.7h10.1V69h4.5V57.7h10.1v33.1h-10.1V78.1z"/>
	<path class="st0" d="M210.2,57.7h17.7v8.9h-8v3.3h7.2v8.3h-7.2v3.5h8.6v9.1h-18.3V57.7z"/>
	<path class="st0" d="M232,90.7V57.7h10.6c2.7,0,5,0.4,6.9,1.2c1.9,0.8,3.4,2,4.6,3.4c1.2,1.5,2,3.2,2.5,5.3c0.5,2,0.8,4.3,0.8,6.7
		c0,2.4-0.3,4.6-0.8,6.6c-0.5,2-1.4,3.7-2.5,5.2c-1.2,1.4-2.7,2.6-4.6,3.4c-1.9,0.8-4.2,1.2-6.9,1.2H232z M247.3,74.3
		c0-2.5-0.4-4.4-1.2-5.7c-0.8-1.4-1.9-2-3.2-2h-0.6v15.3h0.6c1.4,0,2.4-0.7,3.2-2C246.9,78.5,247.3,76.6,247.3,74.3z"/>
	<path class="st0" d="M273.9,91.5c-2.2,0-4.2-0.4-6-1.3c-1.8-0.8-3.2-2-4.5-3.6c-1.2-1.5-2.1-3.3-2.8-5.5c-0.7-2.1-1-4.5-1-7.1
		c0-2.6,0.3-5,1-7.2s1.6-4,2.8-5.5c1.2-1.5,2.7-2.7,4.3-3.5c1.7-0.8,3.5-1.2,5.5-1.2c1.3,0,2.5,0.1,3.5,0.4c1.1,0.2,2,0.5,2.8,0.9
		c0.8,0.4,1.6,0.8,2.2,1.3c0.6,0.5,1.1,1,1.6,1.5l-5.3,7.6c-0.5-0.6-1-1-1.6-1.3c-0.6-0.3-1.4-0.5-2.3-0.5c-0.8,0-1.6,0.2-2.1,0.6
		c-0.6,0.4-1.1,1-1.5,1.7c-0.4,0.7-0.7,1.5-0.9,2.4c-0.2,0.9-0.3,1.9-0.3,2.9c0,1,0.1,1.9,0.2,2.8c0.2,0.9,0.4,1.8,0.7,2.5
		c0.3,0.7,0.8,1.3,1.4,1.8c0.6,0.5,1.2,0.7,2.1,0.7c0.6,0,1-0.1,1.4-0.3v-2.8h-2.9V70h11.4v18.9c-1.1,0.8-2.5,1.5-4.2,1.9
		C278,91.3,276.1,91.5,273.9,91.5z"/>
	<path class="st0" d="M288,57.7h17.7v8.9h-8v3.3h7.2v8.3h-7.2v3.5h8.6v9.1H288V57.7z"/>
	<path class="st0" d="M324.4,78.1h-4.5v12.7h-10.1V57.7h10.1V69h4.5V57.7h10.1v33.1h-10.1V78.1z"/>
	<path class="st0" d="M338,74.1c0-2.6,0.3-5,1-7.2c0.6-2.1,1.6-4,2.8-5.5c1.2-1.5,2.7-2.7,4.4-3.5c1.7-0.8,3.6-1.2,5.7-1.2
		s4,0.4,5.7,1.2c1.7,0.8,3.2,2,4.4,3.5c1.2,1.5,2.1,3.3,2.8,5.5c0.6,2.1,1,4.5,1,7.2c0,2.6-0.3,5.1-1,7.2c-0.6,2.2-1.6,4-2.8,5.5
		c-1.2,1.5-2.7,2.7-4.4,3.5c-1.7,0.8-3.6,1.3-5.7,1.3s-4-0.4-5.7-1.3c-1.7-0.8-3.2-2-4.4-3.5c-1.2-1.5-2.1-3.4-2.8-5.5
		C338.3,79.1,338,76.7,338,74.1z M348.3,74.1c0,2.1,0.3,3.9,0.9,5.3c0.6,1.4,1.5,2.1,2.7,2.1c1.2,0,2.1-0.7,2.7-2.1
		c0.6-1.4,0.9-3.2,0.9-5.3s-0.3-3.9-0.9-5.3c-0.6-1.4-1.5-2.1-2.7-2.1c-1.2,0-2.1,0.7-2.7,2.1C348.6,70.2,348.3,71.9,348.3,74.1z"/>
	<path class="st0" d="M382.1,91.5c-2.2,0-4.2-0.4-6-1.3c-1.8-0.8-3.2-2-4.5-3.6c-1.2-1.5-2.1-3.3-2.8-5.5c-0.7-2.1-1-4.5-1-7.1
		c0-2.6,0.3-5,1-7.2s1.6-4,2.8-5.5c1.2-1.5,2.7-2.7,4.3-3.5c1.7-0.8,3.5-1.2,5.5-1.2c1.3,0,2.5,0.1,3.5,0.4c1.1,0.2,2,0.5,2.8,0.9
		c0.8,0.4,1.6,0.8,2.2,1.3c0.6,0.5,1.1,1,1.6,1.5l-5.3,7.6c-0.5-0.6-1-1-1.6-1.3c-0.6-0.3-1.4-0.5-2.3-0.5c-0.8,0-1.6,0.2-2.1,0.6
		c-0.6,0.4-1.1,1-1.5,1.7c-0.4,0.7-0.7,1.5-0.9,2.4c-0.2,0.9-0.3,1.9-0.3,2.9c0,1,0.1,1.9,0.2,2.8c0.2,0.9,0.4,1.8,0.7,2.5
		c0.3,0.7,0.8,1.3,1.4,1.8c0.6,0.5,1.2,0.7,2.1,0.7c0.6,0,1-0.1,1.4-0.3v-2.8h-2.9V70H392v18.9c-1.1,0.8-2.5,1.5-4.2,1.9
		C386.2,91.3,384.3,91.5,382.1,91.5z"/>
</g>
<g>
	<g>
		<path class="st0" d="M183.1,119.6V105h1.9v14.6H183.1z"/>
		<path class="st0" d="M198.8,119.6l-4.7-11.4h-0.1v11.4h-1.7V105h2.2l4.6,11.4h0.1V105h1.7v14.6H198.8z"/>
		<path class="st0" d="M223,119.5c-0.6,0.4-1.3,0.5-2.1,0.5c-0.8,0-1.5-0.2-2.2-0.6c-0.6-0.4-1.2-0.9-1.6-1.6
			c-0.4-0.7-0.8-1.5-1-2.4c-0.2-0.9-0.4-1.9-0.4-3c0-1.1,0.1-2.1,0.4-3.1c0.2-0.9,0.6-1.7,1-2.4c0.4-0.7,1-1.2,1.6-1.6
			c0.6-0.4,1.4-0.6,2.2-0.6c0.7,0,1.4,0.1,2,0.4c0.6,0.3,1.1,0.7,1.5,1.3l-1.2,1.3c-0.3-0.4-0.7-0.8-1.1-1c-0.4-0.2-0.8-0.3-1.3-0.3
			c-0.6,0-1.1,0.2-1.5,0.5c-0.4,0.3-0.8,0.7-1,1.3c-0.3,0.5-0.5,1.2-0.6,1.9c-0.1,0.7-0.2,1.5-0.2,2.3c0,0.8,0.1,1.6,0.2,2.3
			c0.1,0.7,0.3,1.3,0.6,1.9c0.3,0.5,0.6,1,1,1.3c0.4,0.3,0.9,0.5,1.5,0.5c0.5,0,1-0.1,1.4-0.4c0.4-0.3,0.7-0.6,0.9-1l1.1,1.2
			C224.1,118.6,223.6,119.1,223,119.5z"/>
		<path class="st0" d="M237.5,119.6v-6.8h-5.1v6.8h-1.9V105h1.9v6.2h5.1V105h1.9v14.6H237.5z"/>
		<path class="st0" d="M246.8,119.6V105h1.9v14.6H246.8z"/>
		<path class="st0" d="M262.4,119.6l-4.7-11.4h-0.1v11.4H256V105h2.2l4.6,11.4h0.1V105h1.7v14.6H262.4z"/>
		<path class="st0" d="M278.3,119.6l-0.8-3.4h-4.2l-0.8,3.4h-1.9l3.7-14.6h2.5l3.6,14.6H278.3z M275.4,106.7L275.4,106.7l-1.9,8h3.7
			L275.4,106.7z"/>
	</g>
</g>
</svg>
