<?xml version="1.0" encoding="utf-8"?>
<!-- Generator: Adobe Illustrator 23.0.4, SVG Export Plug-In . SVG Version: 6.00 Build 0)  -->
<svg version="1.1" id="Слой_1" xmlns="http://www.w3.org/2000/svg" xmlns:xlink="http://www.w3.org/1999/xlink" x="0px" y="0px"
	 viewBox="0 0 26.1 25.7" style="enable-background:new 0 0 26.1 25.7;" xml:space="preserve">
<style type="text/css">
	.st0{fill:none;stroke:#2E8B6D;stroke-width:2;stroke-linecap:round;stroke-linejoin:round;}
</style>
<path class="st0" d="M15.9,6.1c2,0.4,3.6,2,3.9,3.9 M15.9,2.1c4.2,0.5,7.5,3.8,7.9,7.9 M22.8,18v3c0,1.1-0.9,2-2,2
	c-0.1,0-0.1,0-0.2,0c-3.1-0.3-6-1.4-8.6-3.1c-2.4-1.5-4.5-3.6-6-6C4.3,11.4,3.3,8.4,3,5.3C2.9,4.2,3.7,3.2,4.8,3.1
	c0.1,0,0.1,0,0.2,0h3c1,0,1.9,0.7,2,1.7c0.1,1,0.4,1.9,0.7,2.8c0.3,0.7,0.1,1.6-0.4,2.1L8.9,11c1.4,2.5,3.5,4.6,6,6l1.3-1.3
	c0.6-0.5,1.4-0.7,2.1-0.4c0.9,0.3,1.8,0.6,2.8,0.7C22.1,16.2,22.9,17,22.8,18z"/>
</svg>
